<svg xmlns="http://www.w3.org/2000/svg" xmlns:xlink="http://www.w3.org/1999/xlink" version="1.1" id="Layer_1" viewBox="360 80 140 80" preserveAspectRatio="xMidYMid meet">
	<g fill="#000000">
		<defs>
			<rect id="SVGID_1_" width="" height=""/>
		</defs>
		<clipPath id="SVGID_2_">
			<!-- <use xlink:href="#SVGID_1_" style="overflow:visible;" /> -->
		</clipPath>
	</g>
	<g fill="#000000">
		<path d="M382.1,94.7h3.6c1,0,1.9,0,2.9,0c0.3,0,0.4,0.1,0.5,0.3c2.8,6.4,5.6,12.9,8.4,19.3c0.1,0.1,0.1,0.3,0.2,0.5   c0.1-0.2,0.1-0.3,0.2-0.4c2.7-6.4,5.4-12.9,8.1-19.4c0.1-0.2,0.2-0.3,0.5-0.3c2,0,3.9,0,5.9,0v27.9h-6V95.5c0,0-0.1,0-0.1,0   c-3.8,9.2-7.6,18.3-11.4,27.6c-4.1-9.3-8.2-18.6-12.3-27.8c0,0,0,0-0.1,0v9c-0.1,0-0.2,0-0.4,0V94.7z"/>
		<path d="M455.1,109.6c0.3,0.6,0.6,1.2,0.9,1.8c0,0.1,0.2,0.1,0.3,0.1c1.8,0,3.6,0,5.4,0c0.3,0,0.4,0.1,0.5,0.4   c1.6,3.5,3.3,6.9,4.9,10.4c0.1,0.1,0.1,0.2,0.2,0.4h-0.5c-1.9,0-3.8,0-5.7,0c-0.3,0-0.4-0.1-0.5-0.3c-2-4.1-3.9-8.3-5.9-12.4   c-0.1-0.2-0.2-0.3-0.5-0.3c-1.5,0-2.9,0-4.5,0v13h-6V94.7h0.3c3.4,0,6.8,0,10.2,0c2.3,0,4.6,0.3,6.7,1.3c1.3,0.6,2.4,1.3,3.3,2.5   c1.9,2.4,1.8,5.5-0.3,7.8c-1.4,1.5-3.1,2.4-5.1,2.8c-1.2,0.3-2.3,0.4-3.5,0.5C455.4,109.6,455.3,109.6,455.1,109.6 M449.8,95v14.2   c1.4,0,2.7,0,4.1-0.1c2.2-0.2,3.9-1.4,4.7-3.5c0.9-2.2,0.9-4.4,0.2-6.6c-0.7-2.1-2.3-3.4-4.5-3.8C452.8,95,451.3,95.1,449.8,95"/>
		<path d="M418.3,94.7h0.4c3.5,0,7,0,10.5,0c1.9,0,3.7,0.2,5.5,0.8c1.2,0.4,2.2,1,3.1,1.9c2,2.1,2,5.3,0,7.5c-1,1.2-2.4,1.9-3.8,2.4   c-1.5,0.5-3.1,0.8-4.7,0.8c-0.1,0-0.2,0-0.3,0c0,0,0,0.1,0,0.1c0.1,0,0.3,0,0.4,0c1.9,0,3.8,0.2,5.6,0.7c1.3,0.3,2.4,0.9,3.5,1.7   c2.9,2.2,3.2,7-0.1,9.6c-1.5,1.2-3.2,1.8-5,2.1c-1.2,0.2-2.5,0.3-3.7,0.3c-3.7,0-7.3,0-11,0h-0.3V94.7z M424.3,108.4v13.9   c1,0,1.9,0,2.8,0c1,0,2-0.2,2.9-0.5c1.8-0.6,3.2-1.7,3.9-3.5c0.7-1.6,0.7-3.3,0.4-5c-0.5-2.5-2.3-4.3-4.8-4.8   C427.9,108.3,426.1,108.5,424.3,108.4 M424.3,108c1.3,0,2.6,0.1,3.8,0c2-0.1,3.5-1.1,4.3-3c0.8-1.8,0.9-3.7,0.5-5.6   c-0.5-2.5-2.3-4-4.7-4.3c-1.1-0.1-2.1-0.1-3.2-0.1c-0.2,0-0.4,0-0.6,0V108z"/>
		<path d="M360.5,94.7h6v0.4c0,5.8,0,11.5,0,17.3c0,1.5,0.1,3,0.6,4.4c1.1,3.5,3.8,5.1,7.3,4.9c2.1-0.1,3.9-0.8,5.3-2.4   c1.1-1.2,1.7-2.6,2-4.1c0.2-1.1,0.4-2.2,0.4-3.3c0-5.6,0-11.2,0-16.8c0-0.1,0-0.3,0-0.4h0.4c0,0.1,0,0.2,0,0.2c0,5.7,0,11.4,0,17.1   c0,1.9-0.3,3.7-1.1,5.5c-1.2,2.8-3.3,4.6-6.3,5.2c-2.7,0.6-5.4,0.4-8-0.6c-3.5-1.4-5.6-4.1-6.3-7.7c-0.2-1.1-0.3-2.2-0.3-3.3   c0-5.3,0-10.7,0-16V94.7z"/>
		<path d="M494.8,122.6c-2,0-4,0-5.9,0c-0.6,0-0.8-0.2-1-0.7c-1.3-2.8-2.6-5.5-3.9-8.2c-0.1-0.2-0.2-0.3-0.5-0.3c-3.3,0-6.7,0-10,0   c-0.3,0-0.4,0.1-0.5,0.3c-1.3,2.9-2.6,5.7-3.9,8.6c-0.1,0.3-0.3,0.4-0.6,0.3c4.3-9.4,8.5-18.8,12.8-28.3   C485.9,103.7,490.3,113.2,494.8,122.6 M483.6,113c-1.7-3.7-3.5-7.4-5.2-11.1c-1.7,3.7-3.3,7.4-5,11.1H483.6z"/>
		<path d="M420.6,135.7c-0.4,0-0.7-0.1-1-0.2c-0.3-0.1-0.5-0.3-0.7-0.5c-0.2-0.2-0.3-0.5-0.4-0.8c-0.1-0.3-0.1-0.6-0.1-0.9v-3.8h0.8   v3.7c0,0.2,0,0.4,0.1,0.6c0.1,0.2,0.1,0.4,0.2,0.5c0.1,0.2,0.3,0.3,0.5,0.4c0.2,0.1,0.4,0.1,0.7,0.1c0.3,0,0.5,0,0.7-0.1   c0.2-0.1,0.3-0.2,0.5-0.4c0.1-0.2,0.2-0.3,0.2-0.5c0.1-0.2,0.1-0.4,0.1-0.6v-3.7h0.8v3.8c0,0.3,0,0.6-0.1,0.9   c-0.1,0.3-0.2,0.5-0.4,0.8c-0.2,0.2-0.4,0.4-0.7,0.5C421.4,135.7,421,135.7,420.6,135.7"/>
		<path d="M426.1,135.6h-0.8v-6h1.9c0.3,0,0.6,0,0.8,0.1c0.3,0.1,0.5,0.2,0.7,0.3c0.2,0.1,0.3,0.3,0.5,0.5c0.1,0.2,0.2,0.5,0.2,0.8   c0,0.4-0.1,0.8-0.4,1.1c-0.3,0.3-0.6,0.4-1,0.5l1.7,2.7h-1l-1.5-2.7h-0.9V135.6z M426.1,132.2h1c0.2,0,0.4,0,0.5,0   c0.2,0,0.3-0.1,0.4-0.2c0.1-0.1,0.2-0.2,0.3-0.3c0.1-0.1,0.1-0.3,0.1-0.5c0-0.2,0-0.3-0.1-0.5c-0.1-0.1-0.2-0.2-0.3-0.3   c-0.1-0.1-0.3-0.1-0.4-0.2c-0.2,0-0.3,0-0.5,0h-1V132.2z"/>
		<path d="M431.2,129.6h2.1c0.2,0,0.5,0,0.7,0.1c0.2,0.1,0.4,0.1,0.6,0.3c0.2,0.1,0.3,0.3,0.4,0.5c0.1,0.2,0.2,0.4,0.2,0.7   c0,0.3-0.1,0.6-0.3,0.8s-0.4,0.4-0.8,0.5v0c0.2,0,0.4,0.1,0.5,0.1c0.2,0.1,0.3,0.2,0.4,0.3c0.1,0.1,0.2,0.3,0.3,0.4   c0.1,0.2,0.1,0.4,0.1,0.6c0,0.3-0.1,0.5-0.2,0.8c-0.1,0.2-0.3,0.4-0.5,0.5c-0.2,0.1-0.4,0.2-0.7,0.3c-0.3,0.1-0.6,0.1-0.9,0.1h-2   V129.6z M432.1,132.1h1.1c0.2,0,0.3,0,0.5-0.1c0.1,0,0.3-0.1,0.4-0.2s0.2-0.2,0.3-0.3c0.1-0.1,0.1-0.3,0.1-0.4   c0-0.3-0.1-0.6-0.4-0.7c-0.2-0.1-0.6-0.2-1-0.2h-1V132.1z M432.1,134.9h1c0.2,0,0.3,0,0.5,0c0.2,0,0.3-0.1,0.5-0.2   c0.1-0.1,0.3-0.2,0.3-0.3c0.1-0.1,0.1-0.3,0.1-0.5c0-0.4-0.1-0.6-0.4-0.8c-0.2-0.2-0.6-0.2-1-0.2h-1.1V134.9z"/>
		<path d="M437.8,135.6h-0.9l2.6-6h0.8l2.6,6h-0.9l-0.6-1.5h-2.8L437.8,135.6z M438.7,133.4h2.2l-1.1-2.8L438.7,133.4z"/>
		<polygon points="448.6,134.4 448.6,134.4 448.6,129.6 449.4,129.6 449.4,135.6 448.4,135.6 445.2,130.7 445.2,130.7 445.2,135.6    444.4,135.6 444.4,129.6 445.5,129.6  "/>
		<polygon points="419.2,145 422.3,145 422.3,145.7 418.4,145.7 418.4,139.8 422.2,139.8 422.2,140.5 419.2,140.5 419.2,142.3    422,142.3 422,143 419.2,143  "/>
		<path d="M426.6,145.9c-0.4,0-0.7-0.1-1-0.2c-0.3-0.1-0.5-0.3-0.7-0.5c-0.2-0.2-0.3-0.5-0.4-0.8c-0.1-0.3-0.1-0.6-0.1-0.9v-3.8h0.8   v3.7c0,0.2,0,0.4,0.1,0.6c0.1,0.2,0.1,0.4,0.2,0.5c0.1,0.2,0.3,0.3,0.5,0.4c0.2,0.1,0.4,0.1,0.7,0.1c0.3,0,0.5,0,0.7-0.1   c0.2-0.1,0.3-0.2,0.5-0.4c0.1-0.2,0.2-0.3,0.2-0.5c0.1-0.2,0.1-0.4,0.1-0.6v-3.7h0.8v3.8c0,0.3,0,0.6-0.1,0.9   c-0.1,0.3-0.2,0.5-0.4,0.8c-0.2,0.2-0.4,0.4-0.7,0.5C427.3,145.8,427,145.9,426.6,145.9"/>
		<path d="M432,145.7h-0.8v-6h1.9c0.3,0,0.6,0,0.8,0.1c0.3,0.1,0.5,0.2,0.7,0.3c0.2,0.1,0.3,0.3,0.5,0.5c0.1,0.2,0.2,0.5,0.2,0.8   c0,0.4-0.1,0.8-0.4,1.1c-0.3,0.3-0.6,0.4-1,0.5l1.7,2.7h-1l-1.5-2.7H432V145.7z M432,142.4h1c0.2,0,0.4,0,0.5,0   c0.2,0,0.3-0.1,0.4-0.2c0.1-0.1,0.2-0.2,0.3-0.3c0.1-0.1,0.1-0.3,0.1-0.5c0-0.2,0-0.3-0.1-0.5c-0.1-0.1-0.2-0.2-0.3-0.3   c-0.1-0.1-0.3-0.1-0.4-0.2c-0.2,0-0.3,0-0.5,0h-1V142.4z"/>
		<path d="M443.2,142.7c0,0.5-0.1,0.9-0.2,1.3c-0.2,0.4-0.4,0.7-0.7,1c-0.3,0.3-0.6,0.5-1,0.6c-0.4,0.2-0.8,0.2-1.3,0.2   c-0.5,0-0.9-0.1-1.3-0.2c-0.4-0.2-0.7-0.4-1-0.6c-0.3-0.3-0.5-0.6-0.7-1c-0.2-0.4-0.2-0.8-0.2-1.3c0-0.5,0.1-0.9,0.2-1.3   c0.2-0.4,0.4-0.7,0.7-1c0.3-0.3,0.6-0.5,1-0.6c0.4-0.2,0.8-0.2,1.3-0.2c0.5,0,0.9,0.1,1.3,0.2c0.4,0.2,0.7,0.4,1,0.6   c0.3,0.3,0.5,0.6,0.7,1C443.1,141.8,443.2,142.3,443.2,142.7 M442.3,142.7c0-0.3-0.1-0.6-0.2-0.9c-0.1-0.3-0.3-0.5-0.5-0.8   c-0.2-0.2-0.4-0.4-0.7-0.5c-0.3-0.1-0.6-0.2-0.9-0.2c-0.3,0-0.7,0.1-0.9,0.2c-0.3,0.1-0.5,0.3-0.7,0.5c-0.2,0.2-0.3,0.5-0.5,0.8   c-0.1,0.3-0.2,0.6-0.2,0.9c0,0.3,0.1,0.6,0.2,0.9c0.1,0.3,0.3,0.5,0.5,0.8c0.2,0.2,0.4,0.4,0.7,0.5c0.3,0.1,0.6,0.2,0.9,0.2   c0.3,0,0.7-0.1,0.9-0.2c0.3-0.1,0.5-0.3,0.7-0.5c0.2-0.2,0.3-0.5,0.5-0.8C442.2,143.4,442.3,143.1,442.3,142.7"/>
		<path d="M445.2,139.8h1.8c0.3,0,0.6,0,0.9,0.1c0.3,0.1,0.5,0.2,0.7,0.3c0.2,0.1,0.3,0.3,0.4,0.5c0.1,0.2,0.2,0.5,0.2,0.8   c0,0.3-0.1,0.6-0.2,0.8c-0.1,0.2-0.3,0.4-0.5,0.5c-0.2,0.1-0.4,0.2-0.7,0.3c-0.3,0.1-0.6,0.1-0.9,0.1H446v2.6h-0.8V139.8z    M446,142.4h0.9c0.2,0,0.4,0,0.6-0.1c0.2,0,0.3-0.1,0.4-0.2c0.1-0.1,0.2-0.2,0.3-0.3c0.1-0.1,0.1-0.3,0.1-0.5c0-0.2,0-0.3-0.1-0.5   c-0.1-0.1-0.2-0.2-0.3-0.3c-0.1-0.1-0.3-0.1-0.4-0.2c-0.2,0-0.4,0-0.5,0H446V142.4z"/>
		<polygon points="451.9,145 455,145 455,145.7 451,145.7 451,139.8 454.9,139.8 454.9,140.5 451.9,140.5 451.9,142.3 454.7,142.3    454.7,143 451.9,143  "/>
		<path d="M457.2,145.7h-0.9l2.6-6h0.8l2.6,6h-0.9l-0.6-1.5h-2.8L457.2,145.7z M458.1,143.5h2.2l-1.1-2.8L458.1,143.5z"/>
		<polygon points="468,144.5 468,144.5 468,139.8 468.9,139.8 468.9,145.7 467.8,145.7 464.7,140.8 464.7,140.8 464.7,145.7    463.8,145.7 463.8,139.8 464.9,139.8  "/>
		<path d="M418.4,149.9h2.1c0.4,0,0.8,0.1,1.1,0.2c0.4,0.1,0.7,0.3,1,0.5c0.3,0.2,0.6,0.6,0.8,0.9c0.2,0.4,0.3,0.8,0.3,1.4   c0,0.5-0.1,1-0.3,1.3c-0.2,0.4-0.4,0.7-0.8,0.9c-0.3,0.2-0.7,0.4-1,0.5s-0.8,0.2-1.1,0.2h-2.1V149.9z M419.2,155.1h1   c0.4,0,0.7-0.1,1-0.2c0.3-0.1,0.6-0.2,0.8-0.4c0.2-0.2,0.4-0.4,0.5-0.7c0.1-0.3,0.2-0.6,0.2-1c0-0.4-0.1-0.7-0.2-1   c-0.1-0.3-0.3-0.5-0.5-0.7c-0.2-0.2-0.5-0.3-0.8-0.4c-0.3-0.1-0.6-0.1-1-0.1h-1V155.1z"/>
		<rect x="425.6" y="149.9" width="0.8" height="6"/>
		<polygon points="433,154.7 433,154.7 433,149.9 433.8,149.9 433.8,155.9 432.8,155.9 429.6,151 429.6,151 429.6,155.9 428.8,155.9    428.8,149.9 429.9,149.9  "/>
		<rect x="436.1" y="149.9" width="0.8" height="6"/>
		<polygon points="443.5,154.7 443.5,154.7 443.5,149.9 444.3,149.9 444.3,155.9 443.3,155.9 440.1,151 440.1,151 440.1,155.9    439.3,155.9 439.3,149.9 440.4,149.9  "/>
		<path d="M451.1,151.1c-0.2-0.2-0.4-0.4-0.7-0.5c-0.3-0.1-0.6-0.2-0.9-0.2c-0.3,0-0.7,0.1-0.9,0.2c-0.3,0.1-0.5,0.3-0.7,0.5   c-0.2,0.2-0.3,0.5-0.5,0.8c-0.1,0.3-0.2,0.6-0.2,0.9c0,0.3,0.1,0.6,0.2,0.9c0.1,0.3,0.3,0.5,0.5,0.8c0.2,0.2,0.4,0.4,0.7,0.5   c0.3,0.1,0.6,0.2,1,0.2c0.3,0,0.5,0,0.8-0.1c0.2,0,0.4-0.1,0.6-0.2v-1.7h-1.3v-0.7h2.2v2.9c-0.3,0.2-0.7,0.3-1,0.4   c-0.4,0.1-0.8,0.1-1.2,0.1c-0.5,0-0.9-0.1-1.3-0.2c-0.4-0.2-0.7-0.4-1-0.7c-0.3-0.3-0.5-0.6-0.7-1c-0.2-0.4-0.2-0.8-0.2-1.3   c0-0.5,0.1-0.9,0.2-1.3c0.2-0.4,0.4-0.7,0.7-1c0.3-0.3,0.6-0.5,1-0.6c0.4-0.2,0.8-0.2,1.3-0.2c0.5,0,0.9,0.1,1.3,0.2   c0.4,0.1,0.7,0.3,0.9,0.6L451.1,151.1z"/>
		<rect x="412.3" y="80.3" width="6" height="14.4"/>
	</g>
</svg>